<?xml version="1.0" encoding="UTF-8"?>
<svg width="512" height="512" version="1.1" viewBox="0 0 512 512" xmlns="http://www.w3.org/2000/svg">
 <g transform="translate(0 -540.36)">
  <path d="m256 540.36c-141.38 0-256 114.62-256 256s114.62 256 256 256 256-114.62 256-256-114.62-256-256-256zm0 48c114.88 0 208 93.12 208 208s-93.12 208-208 208-208-93.12-208-208 93.12-208 208-208z" fill="#8B4513"/>
  <path d="m256 588.36c-114.88 0-208 93.12-208 208s93.12 208 208 208 208-93.12 208-208-93.12-208-208-208zm0 48c88.37 0 160 71.63 160 160s-71.63 160-160 160-160-71.63-160-160 71.63-160 160-160z" fill="#DAA520"/>
  <path d="m256 636.36c-88.37 0-160 71.63-160 160s71.63 160 160 160 160-71.63 160-160-71.63-160-160-160zm0 48c61.86 0 112 50.14 112 112s-50.14 112-112 112-112-50.14-112-112 50.14-112 112-112z" fill="#8B4513"/>
 </g>
</svg>